<svg width="103" height="70" viewBox="0 0 103 70" fill="none" xmlns="http://www.w3.org/2000/svg">
<path d="M17.4696 11.3076C17.8492 19.7347 16.6821 28.2664 15.2858 36.5526C14.029 44.011 12.321 51.3584 9.84885 58.512C9.06493 60.7804 7.81264 63.1325 7.41211 65.5096" stroke="#101010" stroke-width="3" stroke-linecap="round"/>
<path d="M37.7718 6.87598C39.2617 18.3921 36.1088 30.6154 33.7219 41.8242C32.4131 47.9707 30.7742 54.0222 29.3609 60.1407C28.7837 62.6388 28.504 65.4867 27.6523 67.843" stroke="#101010" stroke-width="3" stroke-linecap="round"/>
<path d="M2 39.1116C11.9236 37.615 21.8853 36.2451 31.7683 34.4869C33.4771 34.183 35.011 33.8021 36.6476 33.3064C38.3432 32.7929 40.0359 32.2706 41.73 31.7526C42.4324 31.5379 43.1467 31.4215 43.8441 31.208C44.3199 31.0627 44.7835 30.8192 45.213 30.6878C46.4284 30.3163 47.6242 29.8488 48.8176 29.4837C49.0931 29.3997 49.3117 29.3329 49.5397 29.1614C49.7823 28.9785 49.9619 28.7661 50.2837 28.7811C50.7168 28.801 51.9607 28.8452 52.1751 28.3045C52.216 28.2018 53.078 28.5488 53.2245 28.5894C53.4488 28.6515 53.5533 27.9004 53.7929 27.7646C54.2614 27.4992 55.0763 27.5877 55.5301 27.7825C55.921 27.9504 56.0025 27.8311 56.2716 27.635C56.6252 27.3773 57.0037 27.8174 57.3406 27.874C57.7317 27.94 57.9845 27.3872 58.1568 27.138C58.5094 26.6281 58.624 26.7042 59.1831 26.9034C59.5779 27.0441 59.7641 27.0079 59.8997 26.5823C59.9972 26.2768 60.0901 26.0103 60.4146 26.2667C60.8282 26.5934 60.7242 26.5114 60.9294 26.2111C61.0815 25.9883 61.7399 26.6193 61.9275 26.551C62.2519 26.433 62.1301 25.5156 62.5494 25.512C62.7794 25.51 63.6673 25.8985 63.7103 25.644C63.822 24.9793 64.0634 25.2988 64.58 25.6383C64.832 25.8038 65.0977 25.9438 65.3507 26.1045C65.5119 26.2067 65.477 25.5865 65.4801 25.5102C65.5776 23.1686 67.3594 25.9373 67.8662 24.9845C68.1352 24.478 68.023 24.352 68.6915 24.4265C69.0922 24.471 69.4446 24.6037 69.851 24.4795" stroke="#101010" stroke-width="3" stroke-linecap="round"/>
<path d="M76.09 2.00024C72.0502 3.47158 69.3669 8.36589 67.7476 11.9906C64.4669 19.3349 61.7168 27.7549 61.5437 35.8709C61.4496 40.2951 62.7532 46.3249 68.122 46.4938C71.0958 46.5872 74.1825 45.2528 76.8651 44.1108C81.0332 42.3366 84.8036 39.6594 88.4354 36.9833C93.2725 33.4191 99.4078 28.4868 100.861 22.2614C101.072 21.3585 101.221 19.0094 99.9221 18.7903C97.9412 18.4566 95.5709 19.3936 93.851 20.2189C90.1198 22.0089 86.3292 24.0222 83.0449 26.5475" stroke="#101010" stroke-width="3" stroke-linecap="round"/>
</svg>
