<?xml version="1.0" encoding="UTF-8" standalone="no"?>
<!DOCTYPE svg PUBLIC "-//W3C//DTD SVG 1.1//EN" "http://www.w3.org/Graphics/SVG/1.1/DTD/svg11.dtd">
<svg width="100%" height="100%" viewBox="0 0 1080 235" version="1.1" xmlns="http://www.w3.org/2000/svg" xmlns:xlink="http://www.w3.org/1999/xlink" xml:space="preserve" xmlns:serif="http://www.serif.com/" style="fill-rule:evenodd;clip-rule:evenodd;stroke-linejoin:round;stroke-miterlimit:2;">
    <g id="Traced" transform="matrix(1.90501,0,0,1.90501,-488.505,-628.025)">
        <path d="M324,377C316.781,380.893 307.327,385.797 307,388C306.673,390.203 310.363,393.146 311,394C311.637,394.854 320.424,403.78 323,407C325.023,409.529 324.88,412.971 325,416C325.204,421.139 320.643,426.179 316,430C312.906,432.546 309.104,435.378 304,437C296.123,439.503 288.581,438.603 283,436C278.64,433.966 280.921,428.714 280,429C279.588,429.128 262.207,426.978 258,427C256.627,427.007 256.813,429.036 256.57,431.883C256.552,432.096 256.531,432.313 256.507,432.535C256.089,436.43 257.347,440.704 262,444C272.767,451.626 284.153,452.966 289,453C293.409,453.031 302.812,453.138 307.917,452.61C309.385,452.458 308.816,452.416 311,452C319.806,450.323 322.249,448.282 326,443C327.804,440.459 335.555,431.97 342,423C344.003,420.213 344.105,416.475 344.118,414.221C344.145,409.867 342.285,405.446 340,403C337.366,400.18 331.695,395.218 330.817,394.339C327.806,391.325 324.938,388.629 325,386C325.022,385.056 325.151,382.727 325.178,380.113C325.203,377.657 324.77,376.585 324,377Z" style="fill:rgb(16,16,16);"/>
        <path d="M351,361C352.271,362.028 354.845,367.626 355,369C355.155,370.374 355.065,384.075 356,386C357.192,388.455 361.712,393.459 367,398C368.06,398.91 377.018,406.142 377,414C376.989,419.053 377.308,423.697 374,428C371.508,431.241 370.317,433.407 369.841,436.475C369.57,438.214 370.061,440.752 370,442C369.806,445.992 371.166,445.758 360,446C348.834,446.242 349.202,446.725 350,440C350.798,433.275 353.495,429.414 355,428C356.505,426.586 359.657,421.193 359,414C358.162,404.826 353.172,402.296 348,398C342.783,393.666 336.096,389.621 336,383C335.943,379.08 336.095,372.381 336,368C335.965,366.399 340.682,363.914 345,362C346.466,361.35 349.729,359.972 351,361Z" style="fill:rgb(16,16,16);"/>
        <path d="M362,356C362.737,361.164 365.518,364.603 366,367C367.266,373.29 366.768,375.993 367,381C367.232,386.007 367.355,386.904 376,395.073C379.767,398.633 386.963,406.88 388,410C389.257,413.783 391.683,418.431 388,426C383.999,434.223 382.732,435.511 384,442C385.279,448.543 387.036,448.872 397,450C398.912,450.217 402.457,450.256 405.987,450.141C409.462,450.027 412.287,450.052 412.602,449.296C413.71,446.64 411.068,444.394 411,440C410.97,438.035 410.768,435.322 412.059,432.467C413.598,429.063 417.752,424.49 418,423C418.378,420.736 422.181,410.432 410,401C397.819,391.568 390.375,392.411 391,376.913C391.176,372.555 390.82,366.858 397,374C402.363,380.198 405.298,385.234 410,386C411.622,386.264 419.583,385.877 424,390C429.596,395.224 433.103,399.394 435,401C437.159,402.827 441.179,407.149 443.857,409.769C446.981,412.827 450.959,414.854 453,416C456.79,418.129 461.512,422.187 465,432C468.488,441.813 476.896,444.988 480,446.115C485.197,448.003 486.87,449.366 493,450C500.121,450.737 510.035,449.763 514,449C517.965,448.237 513.582,444.68 514,442C514.418,439.32 514.788,434.091 517,431C519.212,427.909 525.72,420.528 524,413C522.28,405.472 515.756,398.205 510,394.073C507.414,392.216 498.444,383.72 500,379C500.718,376.822 500.089,377.104 499,378C497.394,379.322 495.197,379.106 493,379C491.195,378.913 485.746,374.85 482,370C478.92,366.013 475.087,363.015 473,363C470.913,362.985 474.731,366.65 474,372C473.489,375.736 473.101,377.719 473,379C472.583,384.265 473.718,385.953 477,389C480.282,392.047 484.154,395.825 487,399C494.103,406.924 495.623,407.42 495,414C494.283,421.572 494.417,424.981 492,424C489.583,423.019 481.952,410.525 479,407C476.312,403.791 472.532,395.656 459,392.073C446.856,388.857 444.807,390.25 438,380C431.177,369.726 425.9,366.071 409,365C403.227,364.634 393.943,353.135 384,352C378.443,351.366 361.541,352.784 362,356Z" style="fill:rgb(16,16,16);"/>
        <path d="M567,360.631C562.894,360.405 562.028,360.711 556,364C553.89,365.151 545.805,372.283 540,374C534.195,375.717 532.989,377.608 527,379C521.011,380.392 520.112,385.982 522,389C523.888,392.018 533.325,403.127 534,408C534.675,412.873 534.561,420.624 533,424C531.439,427.376 529.281,430.758 530,435C530.719,439.242 534.778,444.12 540,446.115C545.222,448.111 557.053,452.293 566,452C574.947,451.707 582.917,451.245 589,448C595.083,444.755 602.931,439.635 605,438C607.069,436.365 607.815,435.553 609,435C610.185,434.447 605.393,443.573 605,445C604.607,446.427 603.361,448.965 607,449C610.639,449.035 613.517,448.965 615,449C616.483,449.035 617.757,448.883 618,445C618.243,441.117 621.209,434.478 624,431C628.783,425.039 632.988,420.794 634,418C634.99,415.265 636.643,411.814 633,413C629.738,414.062 623.186,417.182 609,417C594.807,416.818 595.08,414.607 593,414C590.92,413.393 590.468,415.083 589,419C587.532,422.917 585.351,425.247 584,426C583.31,426.384 582.105,427.879 587,428C589.896,428.072 594.621,428.928 607,428C609.373,427.822 608.843,429.228 607,430C605.157,430.772 597.793,432.626 592,433C586.207,433.374 565.924,433.277 562,432C559.444,431.168 556.562,429.721 555.632,425.36C555.134,423.026 555.91,417.717 556,416C556.26,411.075 556.208,408.501 554,404C551.835,399.588 550.293,393.793 552.842,390.213C552.893,390.141 558.378,382.378 565,383C572.019,383.66 575.805,385.581 583,386C589.198,386.361 590.396,387.41 597,392.073C600.185,394.322 605.07,397.875 607.227,399.825C611.611,403.787 612.751,406.585 614,409C614.74,410.43 619.121,407.52 621,407C622.879,406.48 631.596,405.895 633,405C634.404,404.105 629.532,397.493 626,393C619.805,385.119 618.629,382.038 609,376C605.474,373.789 592.25,367.183 590,366C579.029,360.23 570.4,360.819 567,360.631Z" style="fill:rgb(16,16,16);"/>
        <path d="M631,374C631.273,377.051 634.982,380.473 637,387C638.454,391.703 643.975,398.207 645,400C646.007,401.761 649.25,408.388 645,418C641.089,426.845 636.939,428.5 632,437C629.506,441.291 628.26,447.734 629,449C629.774,450.325 643.087,450.172 649,450C654.913,449.828 655.688,450.378 672,450.262C688.312,450.146 700.36,449.506 706,446C710.4,443.265 728.703,425.701 719,424C709.023,422.251 713.073,423.421 711,423C708.927,422.579 711.402,421.579 714,421C716.598,420.421 721.454,419.092 724,417C726.185,415.205 729.75,414.087 731.54,408.93C732.547,406.028 731.422,404.039 731,403C728.675,397.272 726.417,396.065 724,393C722.509,391.11 718.586,385.097 716,381C714.333,378.359 707.164,368.324 700,369C686.046,370.316 683.359,367.672 680,366C678.071,365.04 664.372,362.72 661,367C657.628,371.28 645.186,372.556 641,373C635.998,373.53 630.89,372.775 631,374ZM684,393.073C687.636,397.268 691.325,401.082 692,402C694.056,404.797 697.987,408.363 703,409C708.013,409.637 709.261,410.993 709,412C708.492,413.959 705.89,419.541 701,419C695.121,418.349 684.082,415.013 680,407C678.262,403.59 674.378,401.682 671.755,401.435C667.718,401.054 667.373,401.912 666,401C665.029,400.354 662.69,396.58 662,393C661.581,390.825 665.889,389.499 669,389C672.111,388.501 680.33,388.839 684,393.073ZM666,419C664.521,420.657 660.855,423.931 658,428C657.38,428.883 654.888,431.325 662,432C669.112,432.675 675.157,433.484 679,434C682.843,434.516 692.659,435.402 695,434C697.341,432.598 702.774,428.381 699,428C684.5,426.538 677.77,424.363 675,423C669.602,420.345 666.81,418.093 666,419Z" style="fill:rgb(16,16,16);"/>
        <path d="M772,331C769.374,330.489 763.398,338.333 762,342C759.224,349.282 758.709,352.278 761,357C763.882,362.939 772.904,369.536 776,371C779.096,372.464 784.059,378.189 784,382C783.941,385.811 785.763,392.434 789,395C791.903,397.301 792.972,405.142 789.881,410.237C786.996,414.992 782.737,418.544 781,420C779.521,421.24 777.222,422.341 777,420C776.482,414.549 774.768,407.579 772,403C768.143,396.619 763.435,390.273 763,385C762.401,377.743 759.451,376.931 754,374C747.976,370.761 746.178,369.682 744,370C740.935,370.448 742.137,373.464 740,376C736.184,380.53 729.425,377.639 728,379C726.242,380.679 734.847,387.995 737,390C742.932,395.523 743.35,393.966 747.895,399.567C751.562,404.085 753.775,409.719 754,412C754.503,417.108 753.645,424.189 753,427C752.355,429.811 753.424,433.94 752,437C750.576,440.06 749.511,441.901 749,445C748.489,448.099 748.572,449.661 750,450C753.064,450.726 767.696,450.713 770,450.262C771.358,449.996 769.664,445.977 770,444C770.336,442.023 774.123,436.609 778,435C783.934,432.537 794.511,427.818 799,426C803.77,424.069 812.969,418.826 819,410C822.722,404.552 824.08,403.168 823,403C818.879,402.357 804.057,390.479 803,383C801.821,374.66 799.102,368.884 798,366C796.628,362.409 777.191,338.553 774.035,332.909C772.876,330.836 772.316,331.062 772,331Z" style="fill:rgb(16,16,16);"/>
    </g>
</svg>
